<svg xmlns="http://www.w3.org/2000/svg" viewBox="9.6 132 301.6 233.6"><path d="M96 140v.8c7.15-1.39 16.14-5.09 23.2-2.4-3.27-5.02-18.28-.06-23.2 1.6m-8.8 0-20 8 1.6 1.6-1.6 8.8-29.6 11.2v5.6c5.22 8.77 9.76 22.65 21.6 23.2v-.8H56l1.6-2.4c6.37 3.8 14.18-3.64 20.72 1.25 4.68 3.51 6.35 10.88 7.17 16.35 2.13 14.12.99 30.45.91 44.8l3.2-1.6 5.6 22.4h.8l.8-3.2h.8l-.8 4.8c4.96 6.5 5.5 24.57 2.4 32 5.06 3.49-.53 18.8-1.6 24-7.53-1.23-10.57 6.57-11.2 12.8l3.2 2.4h.8l-.8-2.4 16-1.6c8.7-16.35 8.42-31.97 9.6-50.4h.8c.31 15.13 6.11 32.36.52 47.15-1.3 3.47-5.05 3.75-7.64 5.97-3.2 2.75-4.73 6.89-5.68 10.88l15.2.8 7.2-2.4V356l4.8-17.6 2.4 1.6.8-8c-5.54-7.28-.91-19.66-.8-28h.8c0 4.92-3.75 17.4 0 20.8l-.8-8c3.54-2.56 2.87-18.02.8-21.6 4.31-.92 1.5-6.7 4.89-9.04 6.4-4.43 24.6-1.25 28.71-8.56l-10.4 2.4v-.8c3.62-.97 14.66-5.12 15.2-8.8l3.2.8v-.8l-1.6-.8c5.29-1.9 19-10.49 23.2-4h.8v-2.4h.8l4 23.2h.8l.8-2.4c3.65 8.71 12 23.7 21.6 26.4v-.8c-3.65-1.7-7.11-4.52-7.2-8.8h1.6l.8 4c9.43 2.17 13.08 20.25 7.87 27.75-1.43 2.05-4.02 1.7-5.97 2.9-3.15 1.95-5.11 6.72-5.9 10.15 7.84 3.32 15.2-.45 23.2-.8l2.94-20.8 2.66-11.2v-.8l-3.2-5.6c14.95 9.31 20.82 23.67 16 40.8-7-1.88-9.75 6.57-11.2 12 6.31 2.77 17.61-.24 24-2.4l-.8-9.6h.8l3.2 4.8-3.2-39.2 3.2 2.4-12.8-17.6 8.8 4.8v-.8c-5.02-3.09-11.78-7.08-12-13.6l-2.4-2.4h.8v1.6h.8l-.8-7.2-.8 5.6h-.8l-4-23.2 1.6-4.8-1.6 1.6h-.8l1.6-2.4-2.4-12.8c16.75 1.78 40.77-5.04 51.2-19.2l-12 8c7.17-7.17 15.5-14.73 18.4-24.8h-.8l-1.6 4h-.8l1.6-4.8h-.8l-7.2 9.6h-.8l-1.6 3.2.8-1.6c-14.61 11.04-39.26 23.08-54.4 4.8h-.8l-1.6 2.4-5.6-8 7.2 4.8c-1.71-3.48-4.23-4.92-8-5.6v-.8l14.4 2.4v-.8c-9.54-1.85-20.78-7.13-30.4-5.6v-.8h1.6v-.8h-32.8v-.8h4v-.8h-20.8l1.6-2.4c-10.52-.22-22.53-2.98-32-7.66-3.84-1.89-5.5-6.76-9.6-7.54 0-17.4-7.1-35.05-18.4-48.8l8.8 2.4v-.8l-25.6-4zm0 1.87c.62 0 .13.4-.27.26zm16-.27-.8.8zm-4.8.8-.8.8zm1.6 0 4.8 1.6v.8l-5.6-1.6zm9.6 0 .8 1.6v.8l-6.4-1.6zM80 143.47c.62 0 .13.4-.27.26zm9.6.53.8 1.6h.8c.63-1.64.97-1.64 1.6 0h.8c3.24-3.69 21.27 2.89 17.6 8l4 10.4h.8l.8-1.6 3.2 10.4h.8v-2.4h.8l2.4 12h.8v-1.6h.8v5.6h-.8l-.8-4h-.8c.6 4.77 1.62 10.01-3.2 12.8l-3.2 13.6-4.8 3.2v-1.6c-8.77 7.48-16.67 6.2-18.4-6.4h.8l.8 4h.8l3.2-37.6-3.2-12.8h-.8l-.8-1.6-.8 22.4h.8v-1.6h.8c-2.65 13.65-4.26 26.22-1.6 40l1.6-1.6 2.4 2.4v.8l-3.2-1.6 10.4 7.2-1.6-1.6v-.8c11.58-.54 22.81-16.23 24-27.2h-.8l-1.6 5.6h-.8l2.4-7.2h.8L132 204l1.6-1.6v-.8l-2.4-3.2 4.8 1.6.8 1.6v.8h-3.2v.8l7.2 4-2.4-2.4v-.8l3.2 3.2 2.4-.8c5.35 5.36 18.9 10.42 26.4 8.8v-.8l-11.2-2.4 2.4-.8-.8 1.6 2.4-.8v-.8l-5.6.8-4.8-1.6-.8-3.2h-5.6v-.8l4-.8 20.8 6.4-8-1.6v2.4l4-.8-.8 1.6h.8l17.6-.8v.8h-6.4v.8h12v-.8h-1.6v-.8h4.8v.8h-2.4v.8h5.6l-.8-2.4h3.2v.8h-2.4v.8c14.93-.56 36.3 1.8 42.4 18.4l2.4 1.6h-.8V232h-.8l.8 4 .8-1.6h.8l1.6 6.4-4-4h-.8l.8 2.4-2.4-.8c4.43 4.82 6.4 4.75 6.4 12h.8l.8-4h.8l1.6 3.2c-2.57.27-2.5 1.64-2.4 4h.8l1.6-1.6 1.6 12.8h-.8l-1.6-11.2h-.8L248 272l3.02 9.6 8.98 20.8h.8l.8-1.6 7.2 14.4.54 15.2.26 23.2-18.4 2.4 2.4-2.4-.8 2.4h.8c1.46-3.12 6-10.35 7.2-3.2h.8v-3.2l4.8.8-2.4-1.6-5.6-28.8 4.8 8.8h.8c.3-10.4-12.53-16.74-18.4-24l8 4v-.8c-5.43-2.27-23.5-10.08-20.8-17.6l-4-4h-.8l.8 2.4-8.8-10.4-1.6-4.8 4 2.4-6.4-7.2-4-4 2.4 4h.8l-.8-4 8.8 6.4-5.6-7.2-5.6-3.2.8 3.2-4.8-8h-.8l1.6 4.8h-26.4v.8l1.6.8-17.6 8.8v-.8l16-8v-.8l-22.4 9.6v.8l3.2-.8 1.6 3.2-4 1.6.8-3.2-8.8 4v-.8l5.6-2.4v-.8c-5.75 1.64-14.99 8.94-20.8 5.6l-2.4 1.6 3.2-18.4h-.8l-4 18.4-6.4-.8v.8l6.4.8v.8h-11.2v.8h11.2l-6.4 2.4v.8c9.28.51 3.66 18.7 3.26 25.61-.72 12.59 3.17 34.81-8.62 43.98-3.5 2.72-11.16 2.67-15.44 3.21l6.4-8-2.4 6.4c3.74-3.68 4.65-6.33 10.4-6.4l.8-2.4v-.8h-4c5.61-13.25 3.05-34 1.37-48-.48-4.03-5.22-16.43-2.97-19.2l-6.4-18.4h-.8l4 16h-.8l-.8-3.2-8.8-6.4-4.53-6.4-6.67-16h-.8l1.6 5.6h-.8l-2.4-6.4 3.2-20h-.8l-1.6 12.8h-.8l.8-8-1.6-3.2h.8v1.6h.8l1.6-11.2h-.8l-.8 8h-.8c.92-11.12-3.01-22.72-7.2-32.8l3.2 5.6h.8l-.8-4.8h2.4v-1.6l-10.4-1.6.8 1.6c-8.78-1.22-32.64 6.17-31.34-11.2.33-4.4 6.46-6.67 4.94-11.2v-.8l6.4-.8v-.8l-1.6-.8c5.34-1.7 10.53-2.28 12.8-8l2.4.8-1.6-1.6 2.4-6.4h.8l-.8 3.2h.8l4.8-6.4-3.2 4.8zm22.13 2.13-.26.54zM73.6 147.2l-2.4 2.4zm-4 1.07c.62 0 .13.4-.27.26zm35.2-.27 6.4 5.6-3.2-3.2.8-2.4zm-34.4 3.2-1.6 1.6v-1.6zm.8 2.4.8.8zm37.6 0v2.4h.8zm8.8 3.2 4 9.6h-.8zm-34.4 8c-1.17-2.5-3.7-6.7-7.08-6.26-3.55.46-1.45 4.61.77 5.35 1.97.65 4.27.42 6.31.91M116 160l-.8.8zm0 4 .8.8zm-57.87 1.87.54.26zm57.87-.27.8.8zm7.2.8 4.8 12.8h-.8zm-72.8 2.4v.8l-5.6 1.6zm48 .8-.8.8zM44 171.2l-.8.8zm5.6 0-.8.8zm48.8 0-.8.8zm-51.2.8-.8.8zm-1.6.8-.8.8zm75.2 0 1.6 9.6h.8zm-77.6 1.07c.62 0 .13.4-.27.26zm54.4.53-2.4 16h-.8zm-50.4.8-.8.8zm-3.2 3.2.8 1.6zm48.8 1.6v2.4h.8zm-47.2.8-.8.8zm-1.6.8 1.6 4h-.8zm48 1.6v4h.8zm-45.6 3.2.8 1.6zm80.8 0-.8.8zm-36 1.6v5.6h.8zm36 1.6-.8.8zM57.6 192l-.8.8zm71.2 0 .8 2.4zm-76.8.8 4 2.4v.8zm25.6.27c.62 0 .13.4-.27.26zm3.2-.27-.8.8zm50.4 0-.8.8zm-67.2.8v.8h-3.2zm18.4 2.4-.8.8zm8 0v2.4h.8zm33.6 0-.8.8zm-.8 1.6-.8.8zm4 .8 7.2 12.8 1.6-1.6 8 4v-.8l-10.4-8.8h-.8l.8 3.2h-.8zm-4.8.8-2.4 5.6h-.8zm16.8.8 8.8 4.8v.8c-3.56-.3-7.78-1.86-8.8-5.6m4.8 1.87c.62 0 .13.4-.27.26zm-53.6.53v2.4h.8zm56 0-.8.8zm-29.6.8-4.8 7.2zm5.6.8-.8.8zm31.2.8v.8l-4.8-.8zm-62.93 1.33.26.54zm30.93-.53-4 4.8zm-3.2.8-.8.8zm39.2 0-.8.8zm-23.2.8 1.6 2.4zm6.4 0 4 3.2zm27.2.27.27.26c-.4.14-.89-.26-.27-.26m-76.53 1.06.26.54zm98.93-.53v.8h7.2zm8 0v.8h3.2zm4 0 .8.8zm3.73.27.54.26zm1.87.53.8.8zm-25.6.8-.8.8zm29.6 0v.8h2.4zm-39.2 1.87c.62 0 .13.4-.27.26zm6.4-.27-.8.8zm-44 .8v3.2h.8zm52.8 0v.8h-2.4zm116 0-2.4 3.2zm-191.2.8v.8l-7.2 4zm82.4 0-.8.8zm20 0-.8.8zm-120.8.8-.8.8zm53.33.27.54.26zm75.47.53v.8l-4.8-.8zm-71.2 0v.8h3.2zm20 0v.8l4.8.8zm28.53.27.54.26zm2.67-.27.8.8zm26.4 2.4 2.4-1.6-1.6 2.4c2.65 1.3 4.12 2.59 4 5.6h-.8l-4-3.2.8-2.4-5.6-3.2zm-60-.8 4 1.6V216l-2.4-.8zm38.93-.53.54.26zm1.87-.27.8.8zM100 217.6l-2.4-1.6zm12.8-1.6-3.2 3.2zm23.2 0v3.2h.8zm76 0v.8h4zm4.8 0 .8.8zm84.8 0-.8.8zm-112.8.8.8.8zm2.13.27.54.26zm29.07-.27.8.8zm-23.2.8v.8h2.4zm18.4 0v.8l3.2 3.2 6.4 1.6v-.8zm-114.4.8 6.4.8v.8l-7.2-.8zm102.4 0v.8h2.4zm44.8 0v.8l4 1.6v-.8zm52 0c-8.47 12.8-20.85 20.72-36 22.52-5.03.6-14.87 1.62-16-4.92h-.8l.8 6.4h-.8l-.8-4.8-3.2-1.6-.8-4.8h-.8l-.8-3.2 12 6.4-.8 1.6h.8c4.7-1.3 9.55.61 14.4-.41 12.58-2.67 22.56-10.06 32.8-17.19m-92.8.8v.8h2.4zm-70.4.8.8.8zm74.4 0v.8h3.2zm4 0 .8.8zm80 0-.8.8zm-139.2.8 1.6 2.4zm60.8 0 .8.8zm84.8 3.2.8.8zm-63.2 1.6.8 1.6zm4 0 4.8 4.8zm-2.4 3.2.8 1.6zm-152.8.8-.8.8zm162.4 1.6 4.8 2.4-5.6-1.6zm-12.8.8 1.6 2.4zm7.2 0 1.6 1.6zm12 .8 2.4.8v.8l-3.2-.8zm14.4.27c.62 0 .13.4-.27.26zm18.4-.27-.8.8zm-28.8 1.07c.62 0 .13.4-.27.26zm8.8-.27v.8h-4zm18.4 0-.8.8zm-23.2.8-.8.8zm21.6 0-.8.8zm-46.93 1.33.26.54zm5.33-.53.8.8zm9.6.8v.8l5.6.8v-.8zm-4 4.8 6.4 1.6v.8c-1.81-.03-7.4.06-6.4-2.4m-8 1.6v4.8h.8zm-152 .8-.8.8zm116 .8.8.8zm42.4 0 .8 3.2h-.8zm-1.6.8-.8.8zm-4 3.2.8.8zm8 0v4h-.8zm-160.8 1.6.8 6.4-3.2-4zm152.8 0 .8.8zm4.8.8-.8.8zM92 252l3.2 7.2zm-2.93 1.33.26.54zm154.4 0 .26.54zm6.93-.53.8 2.4zM96 255.2l1.6 1.6zm9.6 0 2.4 6.4h.8zm82.4 4v.8l15.2-4c-4.34-1.69-11.09 1.43-15.2 3.2m56.27-1.87.26.54zm-147.47.27 5.6 8zm84 .8-2.4 3.2zm-41.6.8v3.2h.8zm3.2 0v2.4h.8zm101.6 0 .8.8zm8 0-1.6 2.4zm-42.4 3.2v.8l-7.2-1.6zm-20-.8-.8.8zm55.2 0 .8.8zm-149.6.8.8 4.8h-.8zm46.4 0-4 16h.8zm45.6.27c.62 0 .13.4-.27.26zm-2.4.53-.8.8zm16 0v1.6l-1.6-1.6zm4.8 0 4.8 1.6v.8l-5.6-1.6zm12 0v.8h2.4zm27.2 0 .8.8zm8 0v3.2h.8zm-50.4.8-.8 4h-.8zm-96 .8 3.2 9.6h.8zm100.8.8-2.4 11.2h-.8l.8-11.2h-.8l-.8 8.8h-.8l-.8-4.8 1.6-4.8zm44-.8v3.2h-.8zm-50.4.8-.8.8zm-100.8.8-.8.8zm145.6 0 .8.8zm-147.2.8-.8 2.4zm100.8 0-.8.8zm9.6 0-.8 16h.8l2.4-15.2h.8l-1.6 19.2h-.8c-2.42-5.46-4.78-14.77-.8-20m36.8.8.8.8zm-76 .8.8.8zm10.4 0v.8h3.2zm19.73.53-.26.54zm51.47-.53-.8.8zm-74.67 1.07.54.26zm69.87-.27.8.8zm-150.4.8-.8.8zm4 0-1.6 2.4zm2.4.8-.8 3.2h-.8zm63.2 0-.8.8zm-68.8.8-.8.8zm62.13.27.54.26zm3.2 0 .54.26zm51.47-.27 7.99 13.6 2.41 8-.8-5.6c3.35 2.83 3.33 5.44 3.2 9.6h.8v-4c4.8 1.88 8.84 6.72 8.8 12 5.43 3.16 5.19 8.28 3.2 13.6h-.8v-2.4h-.8v5.6h1.6l-2.4 19.2h.8V340h.8c-.05 2.4.04 3.48-2.4 4l-.8-3.2v-.8l1.6-2.4-1.6 5.6-15.2 1.6 3.2-4.8v3.2h.8c1.14-2.97 2.47-3.8 5.6-3.2v-3.2h.8l-.8 4.8 7.2-6.4H232l-.8-4.8h.8v1.6h.8l.8-6.4h-.8v2.4h-.8v-8h.8l1.6 3.2h.8L232 312l-2.4-5.6h-.8l-.8 1.6-2.4-8h-.8l.8 4.8-3.2-5.6h-.8l-.8 1.6-2.4-8.8h-.8v4.8h-.8l-.8-10.4h-.8v7.2h-.8c-3.45-5.5-4.74-15.84-.8-21.6m33.6 0 1.6 2.4zm-140.8.8-.8.8zm-2.4.8-1.6 5.6h.8l1.6-4.8 3.2 3.2-.8-3.2 1.6 4c4.64 2.68 5.53 9.89 3.2 14.4 2.48.42.87 3.1 0 4.8h1.6l-2.4 4.8-.8 6.4.8 13.6h-.8v-1.6h-.8l-.8 4.8c4 3.64-2.32 17.09-6.4 19.2v-.8l4.8-8-9.6 9.6 1.6-1.6v-.8c-3.74-3.32 2.86-5.66 4.8-8l-2.4.8 2.4-24.8-1.6.8 2.4-15.2-2.4.8h-.8l1.6-5.6h-1.6l1.6-4v-.8l-1.6-1.6 3.2-1.6-4 .8.8-4-1.6.8v-.8zm58.13.27.54.26zm-62.13.53v2.4h-.8zm60 0-.8.8zm53.6 0v9.6h.8zm-55.2.8-.8.8zm-52.8.8-2.4 4.8v.8l2.4.8zm13.6 0 8 3.2v-.8zm32.8 0-.8.8zm4.8 0-.8.8zm65.6 0 6.4 5.6zm-67.2.8-.8.8zm50.4.8.8 2.4zm10.4 0v8.8h.8zm-109.6.8-.8.8zm1.6 0v3.2h.8zm44.8 0v2.4l-15.2 1.6zm1.6.8-.8.8zm-52.8.8.8.8zm7.2 0-.8.8zm4.8 0-.8.8zm42.4.27c.62 0 .13.4-.27.26zm-45.6.53-7.2 15.2 1.6-1.6 4-5.6h-.8l-3.2 4.8zm26.4 1.6c-1.92.46-1.99.38-2.4-1.6zm67.73-1.07-.26.54zm16.27-.53 2.4 4zm3.2.8 3.2 4.8h.8zm-121.6.8.8.8zm4 0L104 288l4-4.8zm4.8.8-2.4 4.8zm9.6 0 6.4 4.8v-.8zm88.8 0v2.4h.8zm-74.4.8-.8.8zm70.93.53-.26.54zm12.27-.53v7.2h.8zm-5.6.8.8 6.4h.8zm-76.8 1.6-.8 8h-.8l-.8-8zm-24 .8-8.8 16.8h.8zm22.4 0v3.2h.8zm91.2 0 .8 1.6zm-16.8.8.8 2.4H208zm-104.8.8-.8 2.4h.8zm154.4.8.8.8zm-47.2.8 1.6 6.4h-.8l-2.4-4v-.8zm21.6.8v.8l4 .8v-.8zm-13.6.8v3.2h.8zm-108 .8-4.8 8c2.73-1.65 5.28-4.7 4.8-8m22.13.53-.26.54zm104.8-.26.54.26zm1.87-.27.8.8zm-122.4.8-.8.8zm104 0 .8.8zm1.6.8-.8 3.2zm-105.6.8v2.4h-.8zm96.8 0 3.2 7.2c-2.34-1.96-4.21-4.08-3.2-7.2m6.4 0v3.2h.8l.8-3.2zm37.6 0-.8.8zm2.4 0 .8 2.4zm-126.4 1.6v4h-.8zm94.4 0 .8.8zm-117.6.8-7.2 13.6h.8zm7.2.8-.8.8zm108.27.53.26.54zm1.33.27.8.8zm4.8.8.8.8zm-114.67 1.33-.26.54zm110.67-.53.8.8zm-122.4.8-3.2 6.4h.8zm27.73 1.33-.26.54zm98.14 0 .26.54zm28.53-.53 3.2 8.8h.8zm-32 .8v1.6h1.6zm9.33.53-.26.54zm1.87-.53 2.4 3.2zm-129.6.8-3.2 6.4h.8zm156 .8 3.2 3.2zm-36 .8.8 4.8 2.4-.8.8 2.4h.8l-2.4-6.4zm5.6.8v4h.8zm5.6 1.6-2.4-.8zm12 .8.8.8zm15.2 0 .8 3.2h-.8zm-162.4 2.4-.8 1.6zm130.4 0 .8.8zm5.6 0-.8.8zm-133.6.8-1.6 4.8h.8v-1.6h.8v4.8h.8zm127.2.8.8 3.2h.8zm33.6 0-.8.8zm-164.8.8-.8 2.4h.8zm129.6 0v4.8h.8zm4.8 0 .8.8zm-134.4 4.8v2.4h.8zm1.6 0 .8.8zm128.8.8.8.8zm-130.93 2.93.26.54zm7.73 1.07-1.6 1.6zm129.6 0-1.6 7.2h-.8zm-135.2.8.8.8zm126.4 0 .8.8zm4 0 .8.8zm-132 .8.8.8zm28 .8v3.2h.8zm102.4 0v2.4l1.6-.8v-.8zm-130.4.8-1.6 4.8h.8zm3.2 0 .8.8zm4 0v3.2h-.8zm-4.8 1.6-1.6 4zm128 .8.8.8zm-134.4.8-.8 6.4h-.8zm134.93 1.07.54.26zm.54 1.86.26.54zm-131.47.27-.8 2.4h.8zm126.13 1.33-.26.54zM95.2 337.07c.62 0 .13.4-.27.26zm128.8.53-.8.8zm4.8 0v.8h-3.2zm-215.2.8.8.8zm83.2 0c0 6.57-1.38 7.98-8 8v-.8l4.8-4-2.4 1.6 2.4-4zm1.6 1.6v.8l3.2-.8zm17.6-.8.8.8zm-22.13 1.33.26.54zm14.93-.53-.8 2.4h-.8zm-9.33 2.13.26.54zm76.8.8.26.54zm85.33.27-1.6 4zm10.4 0v2.4h-.8zm-53.6.8-.8.8zm54.4 2.4-.8.8zm-174.4.8-.8.8zm157.6 1.6-2.4 2.4zm17.6.8-.8.8zm-148.8 4-.8 4h-.8zm126.4 0-.8.8zm18.4 1.6v1.6h-8zm-148 1.6v.8l-4 .8v-.8zm128 1.6-.8.8z" style="fill:#21221e"/><path d="M103.53 360.69c-.67-1.08 3.86-9.52 6.01-11.22 1.11-.87 3-1.78 4.21-2.02s2.36-1.03 2.56-1.74c1.99-7.36 2.28-10.92 1.84-22.45-.82-21.67-3.23-33.48-3.68-18.1-.09 3.05-.35 5.84-.57 6.2s-.38 4.95-.36 10.2c.04 7.3-.22 9.8-1.1 10.7-.64.63-1.7 3.43-2.34 6.22s-1.56 5.2-2.05 5.37-1.37.79-1.98 1.4c-2 2-10.75 4.55-13.7 4-2.41-.45-2.68-.34-2.21.92.41 1.1.06.98-1.5-.5-1.11-1.06-1.98-2.5-1.92-3.2.19-2.2 2.35-7.27 3.1-7.27.4 0 1.46-.93 2.35-2.06 1.2-1.53 2.1-1.94 3.48-1.6 1.64.42 1.97.08 2.75-2.8 1.13-4.23 3.15-16.5 3.17-19.31 0-1.74-.27-2.07-1.39-1.65s-1.23.3-.51-.63c1.43-1.86 1.34-11.52-.21-21.69-.8-5.2-1.66-9.46-1.92-9.46s-.36-1.17-.2-2.6c.26-2.54.24-2.55-.67-.6-.85 1.83-1.04 1.43-2.3-4.8-.74-3.74-1.77-7.81-2.27-9.05s-.92-3.15-.92-4.25c0-1.38-.3-1.81-1-1.4-.78.47-.77.33.02-.65.74-.92.8-1.83.2-3.4a13 13 0 0 1-.82-3.46c0-1.09.2-1.04 1.2.26 1.13 1.45 1.15 1.4.4-.7a13 13 0 0 1-.77-3.2c.04-1.14 3.17 4.96 3.18 6.2.02 2.23 4.2 9.47 7.25 12.5 1.86 1.87 2.94 3.12 2.39 2.78s.62 1.07 2.6 3.14 3.9 3.7 4.24 3.64.93.67 1.29 1.65.86 1.57 1.1 1.32c.61-.6-2.42-11.48-4.9-17.58-1.1-2.72-1.67-4.6-1.25-4.17 1.05 1.07 3.88 8.38 6.14 15.88 1.05 3.46 2.29 6.76 2.75 7.32q.86 1.02.02 1.3c-.52.17-.43 1.03.27 2.37.6 1.16 1.28 3.32 1.5 4.8s.89 5.04 1.46 7.9c.7 3.48 1.05 12.52 1.08 27.32.05 20.92-.04 22.2-1.53 23.86l-1.58 1.74 2.01-.5c1.65-.42 2-.22 2 1.14 0 1.32-.5 1.64-2.63 1.64s-2.96.51-4.23 2.6a33 33 0 0 0-1.88 3.4c-.16.44-.56.55-.88.25s-.02-1.71.69-3.13 1.1-2.76.88-2.99c-.71-.7-4.28 3.18-5.11 5.57-.96 2.75-1.22 2.72 7.85.98l6.88-1.32 2.99-6.28c1.64-3.45 2.99-6.65 2.99-7.12s.57-1.94 1.27-3.3c1-1.94 1.25-4.88 1.17-14.1-.05-6.41.34-16.9.87-23.3 1.4-17 1.54-15.6-1.71-16l-2.8-.35 3.2-.46c2.45-.34 3.26-.84 3.44-2.11.2-1.47-.52-1.83-6.22-3.13-3.54-.81-6.8-1.9-7.23-2.42-.47-.57.87-.39 3.42.46 2.3.77 5.6 1.53 7.3 1.68l3.12.27 1.36-6.56c.75-3.61 1.78-7.08 2.3-7.7s.74-1.64.5-2.26.11-1.84.77-2.7c1.17-1.55 1.19-1.54 1.22.27q.01 1.82-.91 1.27-.92-.56-.48.61c.25.66-.2 3.15-1 5.53a58 58 0 0 0-2 8.12l-.56 3.77 3.08-.38c1.7-.2 4.17-.62 5.49-.92s2.67-.49 3-.4.6-.17.6-.56c0-1.14 2.98-1.58 4.05-.6.75.7.88.61.54-.37-.32-.92.48-1.68 2.88-2.74 8.33-3.67 15.56-7.15 18.13-8.72 4.07-2.49 12.53-5.05 17.6-5.33 8.03-.44 13.97-.34 16.18.28 2.1.59 2.16.53 1.38-1.5-.44-1.18-.62-2.31-.4-2.53s.64.27.94 1.1c1.69 4.76 2.72 6.72 3.55 6.72.54 0 .76-.67.52-1.6-.23-.88-.14-1.6.21-1.6s.82.72 1.05 1.6c.25.96 1.1 1.6 2.1 1.6.92 0 1.58.29 1.47.64s1.16 1.84 2.83 3.3 2.83 2.87 2.59 3.1c-.24.25-1.42-.44-2.63-1.52a166 166 0 0 0-4.1-3.54l-1.9-1.58.57 2a17 17 0 0 0 2.1 4.17c.85 1.19 1.54 2.68 1.54 3.3s.55 1.59 1.22 2.15 1.04 1.19.82 1.4c-.46.46 5.61 9.3 7.4 10.78 1.08.88 1.1.77.2-1-.58-1.1-1.8-2.9-2.74-4l-1.7-1.99 1.83 1.54c1 .85 2.56 2.74 3.47 4.21s2.6 3.21 3.77 3.88c2 1.15 2.02 1.19.21.7l-1.92-.52 1.7 2.4c2.75 3.85 6.63 6.86 13.99 10.87 3.79 2.07 7.14 4.18 7.46 4.7.32.5-1.46-.22-3.95-1.63-5.62-3.17-6.57-3.27-2.48-.27 4.56 3.36 16.32 15.71 16.32 17.15 0 .68.22 1.8.49 2.5s.11 1.26-.34 1.26-1.05-1.03-1.33-2.3a10 10 0 0 0-2.56-4.2c-2.01-1.86-2.05-1.86-1.53-.17 2.53 8.24 3.76 14.14 4.04 19.32.18 3.37.71 6.25 1.19 6.4.47.16.65.62.4 1.02s.1.73.8.73 1.24.35 1.24.78-1.05.57-2.4.3c-2.11-.42-2.41-.25-2.48 1.42l-.08 1.9-.55-2c-.93-3.3-2.95-2.87-5.3 1.15-2.12 3.62-3.42 4.86-2.46 2.34.42-1.1.3-1.15-.71-.3-.67.55-1.22 1.24-1.22 1.53 0 .82 5.7.5 9.2-.52a60 60 0 0 1 6.23-1.4l3.03-.48-.4-14.56c-.22-8-.75-15.75-1.19-17.21a7.5 7.5 0 0 1-.03-4.65q.75-1.97-.04-1.5c-.49.3-.8-.93-.8-3.15 0-2.91-.58-4.46-2.9-7.68-1.6-2.22-3.07-3.87-3.28-3.65-.21.2.55 2.43 1.7 4.93 1.14 2.5 2.07 4.77 2.05 5.05-.07 1.04-3.15-5.25-4.46-9.1-.75-2.2-2.02-4.47-2.83-5.04s-1.48-1.55-1.48-2.17-1.25-3.96-2.78-7.43-2.86-7.45-2.97-8.84c-.1-1.39-.42-2.52-.7-2.52-.3 0-.36-.9-.15-2 .22-1.14.01-2-.48-2-.48 0-.65.62-.38 1.4.4 1.12.29 1.2-.55.43-.78-.72-.82-1.23-.13-2.06.5-.6.7-1.96.46-3.03a59 59 0 0 1-.7-3.68 76 76 0 0 0-.76-4c-.45-2.06-1.28-8.01-1.45-10.46-.04-.55-.38-1-.74-1-.37 0-.63-.27-.57-.6s.05-1.95 0-3.6c-.1-2.74-.4-3.13-3.3-4.3-1.76-.7-3.2-1.64-3.2-2.08s.6-.32 1.35.28c1.2.98 1.28.92.72-.5-1.4-3.58-1.43-3.93-.2-2.4.7.88 1.3 2.01 1.3 2.51.03.87 1.77 1.89 3.24 1.89.96 0-1.84-6.38-2.81-6.4-.44 0-1.52-1.67-2.4-3.7-1.1-2.56-2.95-4.72-6-7.04-10.16-7.74-17.34-10.28-29.16-10.3-4.14-.02-6.5-.28-5.6-.64 1.5-.59 1.5-.6-.09-.66-.9-.03-2.34.47-3.2 1.12s-2.09 1.16-2.75 1.14q-1.16-.04.4-.72c1.53-.66 1.52-.69-.2-.74q-3.15-.1-2.87.74c.08.22-1.9.44-4.4.49-3.46.06-3.96-.06-2.13-.5 3.21-.8 1.99-.98-5.32-.8-5.46.13-6.18-.03-6.63-1.43-.51-1.62-4.18-2.34-13.62-2.67-2.91-.1-4.37-.59-5.46-1.81-.82-.93-1.24-1.2-.93-.6.44.86-.02.98-2.14.58-2.68-.52-2.68-.51-.7.64 1.54.9 2.26.95 3.15.23.93-.75 1.05-.67.65.4-.51 1.37 1.32 2.66 2.62 1.86.37-.23.9-.04 1.18.41a1 1 0 0 0 1.38.29c.52-.32.64-.16.3.39-.32.5-.2.92.27.92s.87-.45.9-1 .36-.23.75.72c.66 1.64 4.3 2.82 9.28 3.02.92.03 2.21.5 2.87 1.05s1.43.76 1.72.47.53-.07.53.5c0 .56-.52.81-1.17.56a128 128 0 0 0-7.84-2.03c-6.9-1.64-19.74-6.83-20.78-8.4-.32-.49-.6-.6-.6-.26s-.8-.1-1.76-1-2.13-1.61-2.6-1.6.77 1.51 2.75 3.32 2.82 2.87 1.86 2.37-3.11-2.2-4.8-3.8c-1.68-1.59-3.16-2.82-3.28-2.74s-.66-.04-1.2-.26-.08-.45 1.02-.52 1.55-.3 1-.53-.8-.74-.54-1.16c.25-.41.16-.66-.2-.56s-1.47-.26-2.46-.8c-2.2-1.23-2.22-1-.17 3.26 1.98 4.13 4.59 7.18 7.66 8.96 1.27.73 1.65 1.13.85.88-.81-.25-1.79-.45-2.17-.45s-1.68-.99-2.88-2.2-1.73-1.6-1.2-.87q1 1.34.15 1.85c-.46.28-.84 0-.84-.6s-.76-1.82-1.7-2.66c-.92-.83-2.67-3.24-3.87-5.34l-2.19-3.82-2.64 5.02c-3.64 6.93-10.52 15.31-13.86 16.9a15 15 0 0 1-5.06 1.33c-1.72.01-2 .2-1.1.76.64.4.94.98.65 1.27-.95.95-10.06-5.3-10.99-7.54-.83-2.02-1.19-4.53-1.59-11.3-.14-2.39-.27-2.56-.9-1.2-.52 1.12-.57.76-.16-1.2.32-1.54.6-4.3.6-6.13s.19-3.16.4-2.94c1.66 1.66 4-33.42 2.36-35.39-.57-.69-.57-1.16.01-1.52.46-.28.85-.04.85.53.01.78.21.74.76-.13.96-1.52 1.19-.84 2.42 7.38 1.01 6.79.66 11.6-1.7 22.76-1.7 8.05-2.2 15.3-1.32 19.04l.56 2.4-1.18-2.4-1.19-2.4.53 2.8c.67 3.54 3.52 7.79 6.43 9.55 2.24 1.35 2.28 1.34 6.87-2.16 2.54-1.93 5.6-4.84 6.77-6.45 3.12-4.27 3.6-4.75 2.97-2.94-1.13 3.21 1.06-.01 3.1-4.55 1.62-3.62 1.77-4.45.76-4.06q-1.27.49.45-1.23c3-3 3.02-5.4.18-16.73-2.26-8.97-6.34-20.38-5.3-14.83.18 1 .04 1.62-.32 1.4s-.92-1.93-1.23-3.79c-.45-2.68-1.5-4.29-5.09-7.8-3.86-3.78-4.25-4.41-2.7-4.41.99 0 1.72.36 1.61.8-.18.79 2.98 4.4 3.84 4.4.71 0-.95-2.66-3.11-5-1.43-1.54-2.84-2.2-4.68-2.2-1.45 0-3.67-.55-4.93-1.2-2.75-1.44-6.11-1.57-6.11-.25 0 .57-.4.44-1-.32-.91-1.15-1.4-1.13-5.4.23-2.42.82-5.02 1.5-5.78 1.52s-2.53 1.28-3.93 2.82-2.73 2.62-2.96 2.4.44-1.3 1.47-2.4c1.36-1.45 1.55-2 .7-2-.65 0-1.98 1.53-2.95 3.4s-1.55 2.55-1.27 1.5c.86-3.33-.97-1.15-2.42 2.87-2.54 7.04-2.73 7.23-8.6 9.02-3.03.92-5.32 1.98-5.1 2.36.51.81-1.4 1.65-3.82 1.66-1.45.01-1.54.16-.54.86.9.65.96.95.2 1.26-.56.22-.82.71-.59 1.09.23.37-1.05 2.22-2.84 4.1-2.82 2.98-3.15 3.68-2.44 5.25.46 1 .64 2.3.4 2.92-.72 1.89 4.58 6.7 8.1 7.36 1.74.32 3.35.85 3.57 1.19s3.64.27 7.6-.15 8.16-.83 9.32-.92 1.98-.42 1.79-.72c-.43-.69 3.5-.3 4.23.42.29.3 1.73.53 3.2.53 1.46 0 2.66.36 2.66.8s-.45.8-1 .8c-1.48 0-1.14 6.12.94 16.59 1.86 9.43 2.62 17.66 1.75 19.01-.28.44-.31 2.78-.07 5.2l.44 4.4.6-4c1.23-8.32 1.27-9.25.36-8.69q-.88.53-.36-.84c.3-.77.59-2.9.65-4.73.08-2.54.26-2 .78 2.26.48 3.98.34 7.58-.48 12.43-.63 3.75-.94 7.62-.69 8.6.28 1.06.1 1.77-.44 1.77-.58 0-.72.76-.38 2.12.37 1.48.26 1.95-.37 1.56-.54-.33-.78-.14-.59.48.18.57.56 2.12.85 3.44.5 2.29.46 2.33-.71.8-.68-.88-1.24-1.27-1.25-.86s.57 1.4 1.3 2.2c1.17 1.3 1.18 1.46.06 1.46-.7 0-1.47.45-1.73 1s-.3-.88-.1-3.18.1-4.34-.22-4.53-.53-7.68-.47-16.63c.13-18.17-.82-25.27-4.3-32.36-2.87-5.87-5.44-6.7-15.52-5.01-3.93.65-7.34.89-7.57.51-.23-.37-.98-.22-1.66.35-1.08.9-1 1.1.67 1.62 1.15.36.64.41-1.28.14-3.51-.5-8.95-5.19-7.93-6.84.34-.54.22-.7-.3-.38-1.37.84-9.5-12.39-8.56-13.92.26-.42-.18-.78-.97-.78-1.23-.01-1.27-.13-.25-.8q1.2-.79.35-1.39c-1.2-.85-1.02-4.2.23-4.2 1.36 0 23.2-8.59 25.95-10.2 1.34-.8 1.95-1.7 1.66-2.46-.25-.66-.12-.99.3-.73.46.28.65-.64.46-2.27-.25-2.13.1-3.1 1.56-4.38l1.89-1.64-2 .43c-1.1.23.52-.81 3.6-2.32 3.23-1.6 6.28-2.58 7.2-2.34 1.15.3 1.3.2.53-.33-1.69-1.17.53-1.67 5.43-1.2 2.32.21 4.04.09 3.81-.28s2.97-.68 7.1-.68c4.9 0 7.53.3 7.53.87 0 1.01 3.45 2.74 5.44 2.72 1.17-.01 1.2-.12.16-.79-.66-.43-.84-.83-.4-.9s-.46-.38-2-.7l-2.8-.59 2.96-.1c3.58-.13 10.86 1.35 11.46 2.32.25.4-.51.4-1.8 0a66 66 0 0 0-4.6-1.22c-2.25-.5-2.3-.45-1.09.93.71.8 2.81 4.52 4.67 8.26s5.2 9.98 7.42 13.86c4.77 8.33 6.16 13.03 5.45 18.54-.58 4.54-.28 7.03.76 6.38.4-.24 1.58.93 2.63 2.6a23 23 0 0 0 3.14 4.05c2.44 2.03 22.55 8.03 28.79 8.6 3.4.3 6.01.84 5.8 1.19-.22.35-1.2.47-2.2.28-1.76-.34-1.76-.33-.08.42.94.42 4 .84 6.8.94s5.76.52 6.59.94c1.11.57 1.34.51.89-.22q-.59-.97.5-.6c.6.2 2.1.1 3.31-.25 2.65-.74 2.92-.17.4.85-1.22.49 1.54.74 8.6.8 18.63.13 39.45 2.94 36.3 4.88-1.45.9-.4 1.74 2.15 1.74q2.19-.02 1.04.67c-1.11.68-.02 1.92 3.51 3.97.77.45 1.4 1.52 1.4 2.39 0 .86.36 1.57.8 1.57s.8-.6.8-1.33c0-1.67.85-.91 1.13 1 .11.79 1.44 2.3 2.94 3.37l2.73 1.94-2.8-2.58c-3.08-2.84-2.92-2.84 2.6-.02 2.09 1.07 3.8 2.25 3.8 2.63s.38.45.84.17 1.3-.13 1.86.33 3.51 1.07 6.56 1.33c10.52.91 26.36-4.64 33.1-11.6 1.51-1.56 2.23-2.15 1.6-1.31-1.01 1.34-1.01 1.48.02 1.14.65-.21 1.42-1.26 1.72-2.33s.59-1.4.65-.74c.14 1.65 2.87-1.7 5.35-6.6 1.06-2.09 2.1-3.8 2.3-3.8.46 0-1.16 3.77-2.76 6.4-1.15 1.9-1.13 1.94.23.86.79-.63 2.16-2.43 3.03-4s1.38-2.14 1.1-1.26c-1.1 3.62-5.97 10.56-11.87 16.88-3.45 3.7-6.04 6.72-5.75 6.72.68 0 7.43-4.53 10-6.72 1.53-1.3 1.72-1.35.84-.2-1.58 2.05-10.02 7.93-14.9 10.38-10.65 5.35-23.8 8.55-32.61 7.94-4.64-.32-5.14-.2-5.03 1.12.06.82-.33 1.39-.88 1.28-1.18-.24-1.3 2.09-.2 3.8.69 1.07.79 1.07.88 0 .06-.66.05-1.65-.02-2.2s.25-1 .7-1c.47 0 .84-.56.84-1.25s.38-1 .85-.72c.47.3.66.73.41.98-.24.24 0 1 .55 1.67.79.98.79 1.1-.01.63-.7-.42-1 .02-1 1.44 0 1.13.36 2.05.8 2.05s.8.38.8.85-.4.6-.9.29c-.56-.35-.75-.13-.5.55.22.61.75 1.04 1.17.95.42-.08.76.35.76.97s-.31.93-.7.69-.6.86-.5 2.43c.14 1.97.59 2.87 1.43 2.88 1.1.01 1.1.1.04.79-.66.43-.86.78-.44.79s.33.44-.2.97c-1.18 1.19-1.28 6.24-.11 6.24.46 0 .64.34.38.74-.25.41-.14.95.25 1.18.39.24.65 1.26.57 2.26-.27 3.88 5.9 19.02 7.75 19.02.39 0 .48.72.2 1.61-.4 1.27.68 2.74 5.14 6.96 3.11 2.94 5.66 5.86 5.66 6.5s.79 2.44 1.75 4.04c1.69 2.79 1.69 2.84.1 1.46-1.6-1.4-1.66-1.38-2.14.4-.88 3.26.11 21.66 1.5 27.67.73 3.2 1.13 6.37.87 7.04-.26.68-.12 1 .33.71.43-.26.79.08.79.76 0 2.13-1.54 1.38-2.77-1.35-1.17-2.6-1.17-2.6-1.05 2.54l.11 5.14-4.99 1.02a79 79 0 0 1-9.54 1.26c-2.51.13-4.77.52-5.02.87-.76 1.02-3.14-.29-3.14-1.72 0-2.74 1.54-6.51 3.53-8.66 1.14-1.23 2.07-2.55 2.07-2.93s1.11-.54 2.47-.34c2.08.3 2.6.03 3.28-1.7 1.64-4.18 1.09-13.65-1.22-21.07-2.4-7.7-3.32-8.82-13.73-16.64-4.72-3.54-5.18-3.76-2.91-1.36 1.48 1.57 2.47 3.21 2.2 3.66-.28.44-.01 1.29.58 1.89.92.91.92 1.25.01 2.1-.6.55-1.08 2.61-1.08 4.59 0 1.97-.72 6.9-1.6 10.96a90 90 0 0 0-1.78 11.47l-.19 4.09-8.12 1.32c-9.7 1.57-11.47 1.6-13.31.2-1.55-1.18-1.94-2.52-.48-1.61q.88.52.36-.35c-.83-1.34 3.57-8.75 5.5-9.27.89-.24 2.4-.44 3.34-.45.94 0 1.97-.64 2.28-1.41 1.12-2.73 1.36-17.08.32-19.7-1.43-3.61-6.33-9.47-7.54-9-.61.23-1.23-.4-1.52-1.55-.56-2.24-1.66-2.54-2.39-.66q-.5 1.3 3.01 4.8c1.93 1.93 3.23 3.51 2.9 3.51-1.84 0-13.27-14.23-17.62-21.94-2.2-3.92-2.75-4.45-3.25-3.18q-.6 1.54-.65-2.24c-.06-3.57-.39-4.77-2.97-10.76-.6-1.39-1.06-3-1.03-3.6s.36-.36.74.52.71 1.18.74.67c.1-1.53-.86-3.49-1.5-3.09-.34.2-.45-.6-.26-1.8.27-1.7.16-1.92-.5-.98q-.86 1.22-.87.2c-.04-3.24-19.73 2.03-24.16 6.47-.62.61-4.88 3.14-9.48 5.61s-8.01 4.5-7.57 4.49 3.23-.68 6.2-1.5 5.4-1.22 5.4-.92-3.69 1.5-8.2 2.66l-11.4 2.94a64 64 0 0 1-7 1.3c-3.44.4-3.81.65-3.91 2.6-.1 1.89-.15 1.93-.45.35-.2-.99-.91-1.8-1.6-1.8-1 0-1.17.7-.84 3.59.22 1.97.09 3.39-.3 3.15s-.7-.05-.7.41c0 1.65 2.3.82 2.64-.95l.34-1.8.11 1.77a2.9 2.9 0 0 1-1.4 2.59c-1.27.67-1.42 1.29-.9 3.63.36 1.54.4 2.81.1 2.81s-.57.63-.59 1.4-.37 3.74-.77 6.6c-1.09 7.76-.77 21.64.52 22.43.86.53.86.87 0 1.91-.66.8-.86 2.2-.55 3.76.4 2.01.3 2.33-.56 1.62-.84-.7-1.34 0-2.4 3.37-.74 2.34-1.34 5.05-1.34 6.03s-.36 1.55-.79 1.29c-.44-.27-.65-.02-.47.55 1.22 3.9 1.24 5.44.08 5.44-.67 0-1.18.27-1.12.6.25 1.6-.18 2.64-.9 2.2-.84-.52-6.4 1.19-6.4 1.96 0 .7-14.43.64-14.87-.07m17.5-3.04c.34-.32-.47-.42-1.8-.22-1.34.2-2.43.7-2.43 1.12 0 .78 3.11.12 4.23-.9m3.7-3.65-.04-1.6-.69 1.6c-.38.88-.7 2.14-.73 2.8-.04 1.07.04 1.07.73 0 .43-.66.76-1.92.73-2.8m144.87 2c0-.44-1.6-.8-3.55-.8s-3.78.36-4.05.8c-.3.5 1.06.8 3.55.8 2.23 0 4.05-.36 4.05-.8m-13.97-5.65c.86-1.4-.12-1.7-1.22-.37-.63.76-.69 1.22-.16 1.22.47 0 1.1-.38 1.38-.85m5.97-5.68q.01-4.38-1.1.33c-.32 1.3-.2 2.2.28 2.2.45 0 .82-1.14.82-2.53m10.44-.31c-.39-1.3-.73-1.76-.77-1.03-.08 1.5.77 4.1 1.2 3.66.15-.15-.04-1.33-.43-2.63m-175.8.89a4.2 4.2 0 0 0 .97-3c-.1-1.03-.03-1.2.16-.39q.36 1.44 1.7 1c1.17-.4 1.16-.33-.07.63-1.9 1.48-1.76 2.27.34 1.97 1.1-.17 2.35-1.46 3.4-3.52.91-1.8 2.64-4.43 3.84-5.84 2.7-3.18 3.98-7.72 3.46-12.25-.32-2.84-.27-3.03.3-1.05.85 3.05.86 3.03 1.2-5.8.2-5.18.01-7.4-.63-7.41-.54 0-.45-.3.2-.72.78-.5.98-1.58.66-3.59-.26-1.58-.17-2.88.19-2.88s.82-1.08 1.01-2.4c.41-2.81-.7-3.2-1.71-.6-.39.99-1.56 3.06-2.6 4.6-3.57 5.23-5.33 9.39-5.47 12.9a693 693 0 0 0-.26 9.62c-.07 3.37-.31 6.02-.53 5.88s-.45.62-.52 1.68c-.14 2.4.73 2.45 2.44.12 1.04-1.41 1.16-1.46.56-.2-1.62 3.38-2.95 4.32-6.74 4.75-4.54.5-5.06.77-6.18 3.1-.8 1.66-.77 1.65.8-.14 1.96-2.25 2.15-1.64.35 1.12-.71 1.08-1.77 1.97-2.36 1.97s-1.28.36-1.55.8c-.79 1.28 5.74.95 7.04-.36M98.8 340c.27-.44.65-.8.85-.8s.35.36.35.8-.38.8-.85.8-.62-.36-.35-.8m6.06-20.47c.04-.93.23-1.12.49-.48.23.58.2 1.27-.07 1.53-.26.27-.45-.2-.42-1.05m4.14-2.1c-.05-2.46 0-2.5.7-.7.43 1.11.45 2.24.05 2.64s-.72-.42-.75-1.93m-5-2.2c0-.4.36-.97.79-1.23.45-.28.59.04.32.75-.54 1.38-1.11 1.64-1.11.49m4.45-1.88c.3-.8.75-1.24 1-.99.24.25 0 .9-.55 1.43-.8.79-.88.7-.45-.44m-1.25-3.29c0-1.08 3.34-6.2 3.76-5.78.21.2-.55 1.75-1.69 3.42-1.14 1.68-2.07 2.74-2.07 2.36m-2.86 34.24c.7-.27 1.26-1 1.26-1.6s.72-1.84 1.6-2.72 1.25-1.6.83-1.6-.56-.63-.3-1.4c.42-1.18.23-1.15-1.23.24a8 8 0 0 0-2.08 3.48 8 8 0 0 1-1.29 2.96c-1.01 1.23-.73 1.38 1.2.64m124.47-.9c.66-.24 2.31-.43 3.67-.43 2.07 0 2.42-.27 2.18-1.7-.32-1.9.96-4.35 1.82-3.48.3.3.13 1.07-.4 1.7-.55.68-.64 1.34-.2 1.61 1.11.69 1.78-2.33 2.2-9.92.2-3.74.53-7.25.73-7.8s-.09-1-.62-1.01c-.62 0-.54-.3.22-.8.98-.65 1-.91.13-1.48-.86-.56-.84-.77.15-1.15.7-.27 1.44-2 1.75-4.1.36-2.38.87-3.46 1.46-3.13.89.5-4.04-5.2-5.36-6.2-.37-.28-.6-.75-.51-1.05.26-.97-1.79-5.28-2.52-5.28-.38 0-.7-.36-.7-.8s-2.14-2.94-4.75-5.55l-4.76-4.76-.3 2.96c-.27 2.48-.34 2.3-.46-1.09-.13-4.04-1.13-6.02-2.83-5.63-.5.12-.63.06-.3-.13.34-.18.36-.75.04-1.25s-.6-1.53-.66-2.28-1.34-2.96-2.84-4.93c-3.41-4.46-3.86-3.84-4.24 5.93-.28 7.25-.24 7.46 2.21 10.66 4.96 6.47 7.14 8.56 7.82 7.49q.66-1.06.66.66c0 1.58 3.2 5.38 3.22 3.85 0-.4.49.17 1.07 1.27s1.47 1.91 1.99 1.8.98.16 1.03.6.15 1.07.21 1.4c.14.79 1.96 5.33 3.87 9.68.84 1.91 1.36 3.65 1.15 3.86s-.62-.37-.91-1.28c-.97-3.06-2.02-1.7-1.96 2.54.04 3.27.22 3.85.81 2.6.55-1.16.62-.72.26 1.6-.96 6.18-.84 7.2.87 7.32 2.99.21 3.2.47.82.98a5.2 5.2 0 0 0-3.28 2.32c-1.35 2.71-1.68 2.8-1.5.38.08-1.21 0-1.56-.2-.79-.2.78-.7 1.2-1.1.95-1.27-.78-3.66.38-4.65 2.26l-.93 1.78.34-1.8c.48-2.49-1.4-2.31-2.57.24-.51 1.12-.93 2.2-.93 2.38 0 .43 7.13-.38 8.8-1m6.46-16.68c.04-.94.23-1.13.49-.49.23.58.2 1.27-.07 1.54-.26.26-.45-.21-.42-1.05M234.6 316c0-1.54.16-2.17.36-1.4s.2 2.03 0 2.8-.36.14-.36-1.4m2.34-1.6c0-1.1.18-1.55.4-1s.22 1.45 0 2-.4.1-.4-1m-5.17-6.67c-1.02-1.56-1.04-1.86-.1-1.86.63 0 .97.16.77.37s-.01 1.04.43 1.87c1.13 2.11.36 1.85-1.1-.38m-6.48-5.81c-.28-.74-.34-1.53-.12-1.75s.64.2.92.95.34 1.53.12 1.75-.63-.2-.92-.95m-4.48-4.67c0-.64.33-1.36.73-1.6.4-.25.53.27.3 1.15-.49 1.87-1.03 2.1-1.03.45m2.46-.92c.04-.93.23-1.12.49-.48.23.58.2 1.27-.07 1.53-.26.27-.45-.2-.42-1.05m3.2 0c.04-.93.23-1.12.49-.48.23.58.2 1.27-.07 1.53-.26.27-.45-.2-.42-1.05m-8.73-1.93c0-1.1.18-1.55.4-1s.22 1.45 0 2-.4.1-.4-1m-2.52-3.8c0-1.87.13-3.4.3-3.4.67 0 .97 4.82.36 5.78-.39.61-.65-.34-.66-2.38m-2.22-3.4c0-1.54.16-2.17.36-1.4s.2 2.03 0 2.8-.36.14-.36-1.4m3-5.2c0-2.57.25-4.41.56-4.1.57.56.37 7.82-.23 8.43-.18.19-.33-1.76-.33-4.33m-2.2-.8c.01-1.76.17-2.39.37-1.39s.18 2.43-.02 3.2c-.2.76-.36-.05-.35-1.81m.28-4.88c-.29-.74-.34-1.53-.12-1.75s.63.2.92.95.34 1.53.12 1.75-.64-.2-.92-.95m24.32 65.55c0-2.35-.14-2.32-1.52.33-.78 1.5-.73 1.8.3 1.8.79 0 1.22-.75 1.22-2.13M108 341.6c.47-.88.68-1.6.46-1.6s-.79.72-1.26 1.6-.68 1.6-.46 1.6.79-.72 1.26-1.6m120.8-3.92c0-.4-.72-.54-1.6-.31s-1.6.55-1.6.72.72.31 1.6.31 1.6-.33 1.6-.72m-128-5.46c0-3.54-.42-3.22-1.04.8-.28 1.8-.16 2.83.29 2.55.41-.26.75-1.76.75-3.35m130.15 1.23c-.26-.64-.45-.45-.49.48-.03.85.16 1.32.42 1.05.27-.26.3-.95.07-1.53m10.26-7.05c.6-4.43-.74-2.73-1.57 2-.38 2.18-.3 2.95.26 2.4.45-.44 1.04-2.42 1.31-4.4m-129.48.6c-.22-.55-.4-.1-.4 1s.18 1.55.4 1 .22-1.45 0-2m-6.83-18.4c.95-1.87 3.33-5.82 5.28-8.78s3.42-6 3.28-6.77c-.18-.92-1.17.11-3.03 3.19-1.52 2.5-3.08 4.56-3.46 4.56s.95-2.36 2.97-5.24c3.86-5.52 4.13-6.8 2.57-11.96l-.97-3.2-3.13 5.78c-1.72 3.18-3.27 5.62-3.46 5.44s1.15-2.91 2.96-6.05c3.1-5.4 3.5-7.17 1.56-7.17-.46 0-.64.53-.4 1.17.48 1.23-.5 2.34-1.33 1.5-.26-.26.03-1.46.66-2.66 1.06-2.06 1-2.32-1.04-4.1l-2.16-1.91 1.8 2.06c1 1.13 1.57 2.3 1.28 2.6s-1.07-.24-1.73-1.18c-1.19-1.69-1.2-1.68-2.72 1.01-1.43 2.55-1.54 1.49-.22-2.09.5-1.34.37-1.3-.79.25-.76 1.01-1.44 2.27-1.52 2.8s-.37 1.31-.65 1.75c-1.02 1.63.28 5.2 1.9 5.2.85 0 1.32.37 1.04.81-.27.45-.77.65-1.1.45-.32-.2-.57 2.64-.55 6.32.02 3.67.32 6.5.66 6.3.35-.22.42-.73.17-1.14s.14-.74.88-.74c1.2 0 1.21.19.17 1.8-1.35 2.1-2.3 5.4-1.55 5.38.3-.01 2.31-3.28 4.49-7.26s4.45-7.84 5.06-8.58c1.1-1.33-1.17 3.1-6.27 12.25-1.74 3.1-2.72 5.99-2.79 8.2-.06 1.88 0 3.41.15 3.41s1.04-1.53 1.99-3.4m-1.7-1.17c0-.46.63-1.33 1.4-1.93 1.3-1.02 1.31-.98.23.5l-1.4 1.93c-.13.19-.23-.04-.23-.5m1.6-3.73c0-.17.55-.76 1.22-1.31 1.02-.85 1.13-.8.71.3-.43 1.12-1.93 1.9-1.93 1m2.37-13.16c.53-1.03 1.18-1.65 1.45-1.38.26.27-.17 1.11-.96 1.87-1.38 1.32-1.4 1.3-.49-.49m-2.77-3.33c.27-.44.65-.8.85-.8s.35.36.35.8-.38.8-.85.8-.62-.36-.35-.8m5.58-1.4c1.24-2.56 2.02-3.29 2.02-1.89 0 .4-.74 1.56-1.64 2.6l-1.64 1.89zm-4.73-8.43c.3-.8.75-1.24 1-1 .24.25 0 .9-.55 1.44-.8.79-.88.7-.45-.44M269.27 309c-.86-.86-1.32.35-.71 1.89.56 1.44.6 1.44.89.05.16-.8.08-1.68-.18-1.94m-28.07-1.8c-.27-.44-.92-.8-1.45-.79-.57 0-.47.32.25.79 1.54 1 1.81 1 1.2 0m28.4.55c0-.14-1.13-1.3-2.5-2.6-2.07-1.93-2.35-2.04-1.6-.58.9 1.73 4.1 4.22 4.1 3.18M118 298.4c-.3-1.82-.71-3.15-.9-2.96s-.11 1.85.18 3.68.7 3.17.9 2.96.13-1.86-.18-3.68m98.7-.13a14 14 0 0 0-2.34-2.7c-1.4-.86-.78 2.16.95 4.58 1.24 1.75 1.88 2.12 2.34 1.37.38-.62 0-1.93-.94-3.25m-4.58-5.88c-1.24-1.58-1.65-1.74-2.02-.79-.25.66-.15 1.2.23 1.2s.93.98 1.24 2.19c.48 1.92.64 2.02 1.33.78.58-1.03.38-1.91-.78-3.38m-2.53-2.74c0-.42-.36-.98-.8-1.25s-.8.07-.8.75.36 1.25.8 1.25.8-.34.8-.75m18.4.47c0-.15-.81-.96-1.8-1.8l-1.8-1.52 1.52 1.8c1.44 1.7 2.08 2.16 2.08 1.52m-17.08-9.18c.07-2.94.32-7.1.56-9.26.38-3.41.3-3.73-.61-2.4-.58.84-1.36 4.4-1.73 7.92s-.8 5.45-.95 4.29.06-4.59.47-7.6c.77-5.63.54-7.4-.8-6.07-.42.42-.81 3.3-.88 6.4-.1 4.7-.28 5.4-1.12 4.3-.56-.73-1.02-.94-1.03-.48s.42 1.29.97 1.84 1.02 1.25 1.05 1.56c.1 1.14 3.13 5.64 3.53 5.25.22-.23.46-2.81.54-5.75m-1.26 3.4c.04-.94.23-1.13.49-.49.23.58.2 1.27-.07 1.53-.26.27-.45-.2-.42-1.05m-2.98.83c-.26-.67-.65-1.06-.86-.85s-.14.77.15 1.24c.79 1.27 1.25 1.02.7-.39m-66.76-2.76c2.11 0 5.58-.52 7.7-1.16s4.1-1.02 4.4-.84.52-.2.52-.85c0-.9-.64-1.06-2.86-.66-1.58.29-3.2.7-3.59.94-.81.47-5.18 1.07-9.08 1.25-2.21.1-2.6.42-2.57 2.12.02 1.74.12 1.82.84.6.6-1.02 1.84-1.4 4.64-1.4m81.93.48c-.8-1.06-1.59-1.78-1.77-1.6-.33.31 2.3 3.52 2.9 3.52.17 0-.34-.86-1.13-1.92m-66.22-4.33c-.24-.24-.89 0-1.43.55-.79.8-.7.88.45.45.78-.3 1.23-.75.98-1m-55.87-3.5c-.26-.64-.45-.45-.49.48-.03.85.16 1.32.42 1.05.27-.26.3-.95.07-1.53m57.56.48c.66.25.96.1.69-.34-.66-1.07.67-1 1.75.08.63.63 1.51.53 3.16-.37 1.26-.68 1.86-1.25 1.34-1.27s-.82-.74-.65-1.62c.27-1.42-.25-1.3-5.25 1.21-3.05 1.54-5.55 2.99-5.55 3.22s.75.02 1.66-.47c.92-.5 2.2-.69 2.85-.44m2.32-1.1c-.26-.4.23-1.13 1.1-1.6 2.3-1.22 3.01-1.01 1.22.37-1.53 1.19-1.53 1.2.05.73 1.3-.4 1.38-.32.4.38-1.49 1.07-2.17 1.1-2.77.13m45.68.14c.43-3 1.2-6.75 1.63-7.84.26-.7-.07-1.14-.85-1.14s-1.32.71-1.37 1.8c-.04.99-.22 3.57-.4 5.74-.3 3.57.52 4.75 1 1.44M102.4 272.3c0-.66-.36-.98-.8-.71s-.8 1.03-.8 1.7.36.97.8.7.8-1.03.8-1.7m101.79-6.54c.17-1.89.33-1.9 5.14-.55.8.23.3-.14-1.15-.81-2.86-1.33-6.58-.87-6.58.82 0 .58-.18 1.7-.41 2.51s.12.39.77-.93l1.18-2.4-.14 2.4c-.07 1.32-.38 2.58-.7 2.8s-.33 1.48-.07 2.8c.46 2.3.51 2.24 1.14-1.2.36-1.98.73-4.43.82-5.44M100 271.1c0-.44-.36-.58-.8-.31s-.8.85-.8 1.3.36.57.8.3.8-.85.8-1.3m73.54-3.04c1.13-.8 3.97-2.45 6.3-3.66s4.09-2.34 3.91-2.51c-.68-.69-18.95 8.69-18.95 9.73 0 .53 6.95-2.3 8.74-3.56m-74.77.8c.25-.41.09-.97-.36-1.25s-.81.06-.81.74c0 1.4.48 1.61 1.17.5m115.51-1.65c-.46-1.32-1.17-2.4-1.58-2.4-.4 0-.18 1.08.5 2.4s1.4 2.4 1.58 2.4-.04-1.08-.5-2.4m-118.62-2.86c-.3-1.17-.72-1.95-.94-1.73s-.16 1.36.14 2.53.71 1.95.93 1.73.16-1.36-.13-2.53m105.14.46c0-.88-.33-1.6-.72-1.6s-.54.72-.31 1.6.56 1.6.72 1.6c.17 0 .31-.72.31-1.6m47.92-6.68c-.5-3.37-1.24-6.12-1.63-6.12-.4 0-.55.81-.35 1.8s.59 3.24.86 5c.61 4.04 1.25 6.22 1.69 5.78.18-.19-.07-3.1-.57-6.46m-59.52 4.28q1.6-.68.4-.73c-.66-.03-1.74.3-2.4.73-1.46.95-.2.95 2 0m18.4-.43c-1.32-.6-3.12-1.08-4-1.05s-.16.52 1.6 1.1c4.16 1.38 5.45 1.35 2.4-.05M93.89 256.2c-1.3-3.17-2.73-5.17-2.35-3.3.5 2.46 2.52 6.3 3.32 6.3.14 0-.3-1.35-.97-3m160.91-13.73c-3.15-1.24-6-1.69-6-.94 0 .9 1.93 1.47 5.2 1.53 1.97.03 2.11-.07.8-.6m-7.42-2.6c-.44-.44-.59-1.58-.33-2.53.44-1.68.47-1.67.94.26.76 3.15 7.02 4.29 17.12 3.12 6.53-.76 9.02-1.47 14.22-4.07 6.4-3.2 13.74-9.3 18.47-15.33l2.6-3.31-4.4 3.7c-4.95 4.18-16.05 9.97-24.32 12.7-4.62 1.51-6.58 1.73-12 1.35-6.07-.44-6.3-.4-3.68.63 1.54.6 2.19 1.13 1.44 1.16-2.1.1-5.45-1.68-4.9-2.58.3-.46.1-.56-.4-.24-.51.31-2.6-.62-4.63-2.08l-5.37-3.84c-1.36-.97-1.54-.99-.97-.06.54.87.35 1.01-.84.6-1.43-.5-1.44-.47-.13.55 1.47 1.14 1.97 2.56.61 1.72-.46-.29-.58.05-.29.82q.5 1.32 1.06.4c.4-.64.86-.55 1.56.3.55.66.78 1.56.5 2-.26.43.26 1.18 1.16 1.67.9.48 1.44 1.21 1.19 1.62-.26.41-.03 1.56.5 2.56q.99 1.84 1.33.75a2 2 0 0 0-.44-1.87m-3.66-7.44c-.82-.61-1.36-1.47-1.2-1.9s.93.1 1.72 1.15c1.64 2.2 1.56 2.33-.52.75m26.68 1.05c1.53-.9-4.72.07-6.4 1-.7.38.14.46 2 .19 1.76-.26 3.74-.8 4.4-1.19m-12.35.2c-.25-.4-1.99-.98-3.85-1.3a21 21 0 0 1-4.8-1.3c-.87-.45-1.4-.44-1.4.04 0 .78 3.55 2.12 7.2 2.74l2.65.44c.35.06.44-.22.2-.62m30.35-.07c.27-.44.14-.8-.3-.8s-1.03.36-1.3.8-.13.8.3.8 1.03-.36 1.3-.8m-49.2-6.7c0-.17-.63-.8-1.4-1.4-1.27-1-1.3-.97-.3.3 1.04 1.33 1.7 1.76 1.7 1.1m-7.44-8.87c-2.02-2-4.43-3.63-5.34-3.63-1.59 0-1.6.08-.33 2.02.92 1.4 1.78 1.88 2.81 1.55 1.09-.35 1.37-.16 1.04.7q-.45 1.17 1 1.05c.8-.07 1.37.33 1.26.88s.25.91.8.8.89.34.74 1c-.2.94-.04.99.73.23s.2-1.74-2.7-4.6m-124.67 1.6c-.2-.2-1.8-.55-3.52-.77-1.74-.21-3.28-.77-3.44-1.23s-1.06-1.25-2-1.74c-1.4-.72-1.27-.4.61 1.6s3 2.51 5.53 2.51c1.76 0 3.02-.17 2.82-.37m4.82-2.08c1.05-.87 1.77-1.73 1.6-1.9-.18-.17-1.33.55-2.56 1.62-1.24 1.06-1.96 1.92-1.6 1.9.35-.01 1.5-.74 2.55-1.62m-15.57-.65c-.85-.82-1.72-1.33-1.94-1.13s.3.87 1.15 1.5c2.2 1.6 2.61 1.4.8-.37m11.26-.11c.27-.45.93-.57 1.45-.28.52.3.67.24.33-.12-.33-.37.4-1.32 1.6-2.13 1.22-.8 1.71-1.45 1.1-1.46-1.47 0-6.49 3.14-6.49 4.06 0 1 1.38.94 2-.07m116.13-1.84c0-.64-1.1-1.09-2.86-1.16l-2.87-.1 2.8 1.09c1.54.6 2.83 1.13 2.87 1.16.03.03.06-.41.06-.98m-35.95-2.64c-.26-.27-.95-.3-1.53-.07-.64.26-.45.45.48.49.85.03 1.32-.16 1.05-.42m-71.18-5.44c.1-1.17-.42-.9-2.2 1.2-2.98 3.47-3.05 4.58-.15 2.18 1.23-1.02 2.3-2.54 2.36-3.38m58 4.6a3 3 0 0 0-2 0c-.56.21-.1.4 1 .4s1.54-.19 1-.41m-52.23-7.01c.01-.41-1.05.67-2.36 2.4-1.3 1.72-2.38 3.47-2.4 3.88 0 .41 1.05-.67 2.36-2.4s2.39-3.48 2.4-3.88m10.07-.26c-1.08-2.1-2.2-4.78-2.48-5.97s-1.03-2.58-1.65-3.1c-3.18-2.64.45 7 4.32 11.47 1.95 2.25 1.9 1.65-.19-2.4m12.95.08c-1.65-.69-3-1.71-3-2.27 0-.9-2.29-1.97-4.26-2-1.65-.03 6.49 5.29 8.26 5.4 1.6.09 1.4-.13-1-1.13m7.4.52a5.6 5.6 0 0 0-2.8-.7c-1.32.05-1.25.17.4.7 2.83.9 3.8.9 2.4 0m-31.62-2.36c.67-1.3 1.22-2.64 1.22-2.98 0-.82-2 2.16-2.64 3.94-.8 2.23.08 1.62 1.42-.96m24.42-.04c-.66-.43-1.56-.78-2-.78s-.26.35.4.78 1.56.77 2 .77.26-.35-.4-.77m-18.46-9c.03-.33-.36-.6-.87-.6-.52 0-.73.2-.47.46.25.26-.05 1.69-.67 3.18s-1.1 2.99-1.07 3.33c.06.67 2.98-5.36 3.08-6.37m-43.12.24c-1.54-2.89-2.45-1.75-1 1.27.87 1.85 1.47 2.45 1.63 1.64.14-.7-.14-2-.63-2.9m-29.22 1.41a28 28 0 0 1-3.2-2.17q-1.64-1.32.34.92c1.07 1.2 2.5 2.18 3.2 2.17.95-.02.87-.24-.34-.92m8.6-1.19c-.55-.22-1.45-.22-2 0s-.1.4 1 .4 1.55-.18 1-.4m67.06-.63c.4.24.48-.19.18-.96-.33-.87-.66-1.03-.86-.44-.17.53-.65.77-1.05.52-.87-.54-.99.72-.15 1.56.32.32.71.2.87-.28.16-.47.61-.65 1-.4M96.7 181.33c.81-4.3 1.2-7.54.84-7.18-.59.6-3.2 14.09-3.08 15.85.12 1.58.76-.91 2.23-8.67m28.9 2.47c-.01-2.49-.22-3.08-.8-2.2-.59.92-.77.62-.78-1.26-.01-2.63-2.17-9.7-3.15-10.3-.33-.2.28 2.77 1.35 6.6s2.12 7.77 2.36 8.76c.64 2.76 1.03 2.15 1.02-1.6m-81.1-.73c-1.46-2.07-1.73-1.4-.43 1.05.48.89 1.06 1.43 1.29 1.2s-.16-1.24-.87-2.25m80.75-11.32c-3.63-7.2-8.38-15.54-8.4-14.77-.06 1.29 3.93 9.42 4.62 9.42.8 0 4.48 7.8 5.46 11.6.44 1.72.7 1.99.92.96.17-.8-1-4.04-2.6-7.2m-77.92.41c-.58-.2-1.43.03-1.9.5-.59.59-.28.7 1.05.35 1.08-.29 1.45-.65.85-.85m2.29-2.64c1.07-.6 1.07-.68 0-.68-.66 0-2.1.55-3.2 1.21l-2 1.2 2-.52c1.1-.3 2.54-.84 3.2-1.21M70 152c.27-.44.11-.8-.35-.8s-.85.36-.85.8.16.8.35.8.58-.36.85-.8m3.6-3.6c.56-.67.64-1.2.2-1.2s-1.25.54-1.8 1.2c-.56.67-.64 1.2-.2 1.2s1.25-.54 1.8-1.2m38.68-1.63c-.26-.68-.65-1.07-.86-.86s-.14.77.15 1.24c.79 1.27 1.25 1.03.7-.38m-9.36-3.17c-2.93-1.53-4.59-1.51-2.56.03a6.3 6.3 0 0 0 3.2 1.17c1.38 0 1.28-.2-.64-1.2M132 324c0-.44.36-.8.8-.8s.8.36.8.8-.36.8-.8.8-.8-.36-.8-.8m.86-2.87c.04-.93.23-1.12.49-.48.23.58.2 1.27-.07 1.53-.26.27-.45-.2-.42-1.05m-.46-2.72c-.27-.44-.15-1.4.26-2.13.6-1.08.74-.93.74.8 0 2.28-.22 2.58-1 1.33m.98-8.21c.5-6.14.96-6.56.85-.8-.05 2.75-.34 5-.64 5s-.4-1.89-.2-4.2m131.75-10.44c-2.1-1.46-3.99-3.1-4.17-3.66-.19-.56 1.26.17 3.23 1.64s4.25 3.09 5.08 3.61 1.11.98.6 1-2.63-1.14-4.74-2.6M134.53 288.8c0-1.1.18-1.55.4-1s.22 1.45 0 2-.4.1-.4-1M123 285.53l-2.61-2.47 3.2 2.24 3.53 2.47c.19.13-.08.23-.58.23-.51 0-2.1-1.11-3.54-2.47M255.7 283c-.65-2.4-.63-3 .09-3 .33 0 .68 1.08.77 2.4.2 2.84-.2 3.11-.87.6m-131.49-1.17c1.22-.19 3.02-.18 4 0 .98.2-.01.35-2.21.34s-3-.16-1.79-.34m6.84.02c.58-.23 1.27-.2 1.53.07s-.2.45-1.05.42c-.93-.04-1.12-.23-.48-.49m92.95-3.98c-2.42-2.01-4.54-4.05-4.72-4.52-.18-.48 1.9 1.06 4.6 3.41 4.29 3.73 5.5 4.96 4.72 4.8a97 97 0 0 1-4.6-3.7m-86.33.14c.08-1.51 1.41-4.07 1.46-2.8.03.66-.3 1.74-.73 2.4s-.76.84-.73.4m-29.51-8.56c-.96-2.27-1.62-4.25-1.46-4.4.15-.16 1.08 1.56 2.05 3.81s1.62 4.24 1.46 4.41-1.1-1.55-2.05-3.82m31.54 1.76c.28-1.54.82-3.52 1.2-4.4q.73-1.67.2 1.2a25 25 0 0 1-1.2 4.4q-.73 1.67-.2-1.2m111.69-4c0-1.54.16-2.17.36-1.4s.2 2.03 0 2.8-.36.14-.36-1.4m-151.8-5c-1.07-2.19-1.08-2.34-.06-1 .67.88 1.6 2.05 2.07 2.6.56.64.57 1 .05 1-.44 0-1.38-1.17-2.07-2.6m42.08 1.33c.04-.93.23-1.12.49-.48.23.58.2 1.27-.07 1.53-.26.27-.45-.2-.42-1.05m.8-3.2c.04-.93.23-1.12.49-.48.23.58.2 1.27-.07 1.53-.26.27-.45-.2-.42-1.05m109.22-.81c-.28-.74-.34-1.53-.12-1.75s.64.2.92.95.34 1.53.12 1.75-.63-.2-.92-.95m-63.24-.23c1.22-1.13 12.9-4.32 14.08-3.85.65.26.42.46-.58.5-.91.03-4.3.96-7.54 2.06-6.47 2.2-7.08 2.33-5.96 1.3m53.22-14.97c.04-.93.23-1.12.49-.48.23.58.2 1.27-.07 1.53-.26.27-.45-.2-.42-1.05m-4.5-10.78c-.28-.47-.35-1.03-.14-1.24s.6.18.86.86c.54 1.4.08 1.65-.71.38m-80.8-11.2c-.3-.47-.36-1.03-.15-1.24s.6.18.86.85c.54 1.41.08 1.66-.71.38m65.83.25c-.77-.17-1.4-.68-1.4-1.14s-.48-.64-1.07-.41c-.58.22-1.06-.09-1.06-.68 0-1.01 1.23-.58 5.26 1.84.72.43-.4.69-1.73.4m15.8-2.76-2.4-2.46 2.6 1.76c1.43.97 2.6 2.1 2.6 2.51 0 1.03-.09.97-2.8-1.8m11.6-.25c-1.1-.63-1.62-1.16-1.15-1.17.46-.02 1.54.5 2.4 1.14 1.97 1.5 1.34 1.5-1.25.03m-41.75-.15c.58-.23 1.27-.2 1.53.06.27.27-.2.46-1.05.42-.93-.03-1.12-.22-.48-.48m-71.72-1.85c0-1.1.18-1.55.4-1s.22 1.45 0 2-.4.1-.4-1m79.87.8c-.72-.47-.82-.78-.25-.8.53 0 1.18.36 1.45.8.61.99.34.99-1.2 0m25.73-.95c-1.91-.43-3.31-.94-3.12-1.13.41-.41 8.59 1.25 8.59 1.74 0 .46-1.38.3-5.47-.61m-29.13-1.18c.55-.22 1.45-.22 2 0s.1.4-1 .4-1.55-.18-1-.4m22.2-.27-2.4-.61 2.6-.1c1.43-.05 2.6.27 2.6.71s-.09.76-.2.7-1.28-.36-2.6-.7m-61.6-.8c-1.54-.66-1.54-.69.15-.74.97-.03 1.98.3 2.25.74q.89 1.42-2.4 0m-37.87-1.6c0-1.1.18-1.55.4-1s.22 1.45 0 2-.4.1-.4-1m29.53-.71c-1.84-.5-1.8-.58.91-1.41 2.48-.76 5.7-.22 4.6.78-.87.8-3.71 1.13-5.51.63m-3.7-.82c.25-.4 0-.92-.56-1.14-.6-.24-.45-.43.4-.47.77-.03 1.4.48 1.4 1.14s-.38 1.2-.85 1.2-.64-.33-.4-.73m51.5-2.22c.58-.23 1.27-.2 1.53.07.27.26-.2.45-1.05.42-.93-.04-1.12-.23-.48-.49m-19.24-1.62c1-.19 2.43-.18 3.2.02.76.2-.05.36-1.81.35s-2.39-.17-1.39-.37m-102.95-11.1c.04-.93.23-1.12.49-.48.23.58.2 1.27-.07 1.53-.26.27-.45-.2-.42-1.05m.9-7.13c.01-1.32.2-1.77.4-.99s.18 1.86-.04 2.4c-.21.54-.38-.1-.36-1.41m.8-4.8c.01-1.32.2-1.77.4-.99s.18 1.86-.04 2.4c-.21.54-.38-.1-.36-1.41m.7-4.07c.04-.93.23-1.12.49-.48.23.57.2 1.26-.07 1.53s-.45-.2-.42-1.05m-10.78-17c-.26-.43-1.88-.59-3.6-.36-2.63.35-3.27.14-4.06-1.34-2.45-4.56 2.26-5.48 6.37-1.24 1.48 1.53 2.5 3 2.23 3.25s-.68.12-.94-.31M70 157.6c.27-.44.65-.8.85-.8s.35.36.35.8-.38.8-.85.8-.62-.36-.35-.8m38.86-2.87c.04-.93.23-1.12.49-.48.23.58.2 1.27-.07 1.53-.26.27-.45-.2-.42-1.05M96.54 140c.72-.67 8.9-2 8.26-1.35-.22.23-2.32.76-4.66 1.18-2.35.43-3.97.5-3.6.17m9.66-2.13c.55-.22 1.45-.22 2 0s.1.4-1 .4-1.55-.18-1-.4m11.42-.65c-.63-.76-.7-1.22-.17-1.22.97 0 2.1 1.52 1.54 2.07-.2.2-.82-.18-1.37-.85m-6.57-.17c.58-.23 1.27-.2 1.53.07.27.26-.2.45-1.05.42-.93-.04-1.12-.23-.48-.49" style="fill:#21221e"/></svg>