<?xml version="1.0" encoding="UTF-8"?>
<svg version="1.1" viewBox="0 0 1442 463" xmlns="http://www.w3.org/2000/svg" role="img" aria-labelledby="title">
<title id="title">Applied Materials Inverted</title>
<path transform="translate(382,55)" d="m0 0c0.88688 0.75668 1.7738 1.5134 2.6875 2.293 12.326 10.806 23.686 22.429 33.312 35.707 0.45858 0.63019 0.91717 1.2604 1.3896 1.9097 6.9466 9.6288 13.117 19.566 18.61 30.09 0.36835 0.69867 0.7367 1.3973 1.1162 2.1172 16.682 32.061 24.342 67.722 24.259 103.7-8.1573e-4 1.3424-8.1573e-4 1.3424-0.001648 2.7119-0.12497 44.96-13.014 89.147-38.373 126.48-0.3951 0.59039-0.7902 1.1808-1.1973 1.7891-33.873 50.338-87.109 84.491-146.24 96.716-14.823 2.8628-29.318 3.903-44.38 3.8699-0.89391-2.1149e-4 -1.7878-4.2297e-4 -2.7088-6.4087e-4 -15.463-0.036324-30.307-1.1861-45.479-4.3744-0.90396-0.18724-1.8079-0.37447-2.7393-0.56738-5.8256-1.246-11.551-2.7349-17.261-4.4326-0.77763-0.22994-1.5553-0.45987-2.3564-0.69678-29.446-8.96-56.414-24.256-79.644-44.303-0.88688-0.75668-1.7738-1.5134-2.6875-2.293-11.768-10.317-22.743-21.391-32.045-33.991-1.257-1.702-2.5348-3.3868-3.8145-5.0718-6.7588-9.0353-12.255-18.643-17.453-28.645-0.38543-0.73283-0.77086-1.4657-1.168-2.2207-16.709-32.135-24.289-67.571-24.207-103.59 8.7616e-4 -0.94326 0.0017523-1.8865 0.002655-2.8584 0.14969-49.041 15.229-97.248 45.372-136.33 0.72961-0.95906 1.4592-1.9181 2.2109-2.9062 4.6446-5.9481 9.6017-11.615 14.789-17.094 0.58926-0.62326 1.1785-1.2465 1.7856-1.8887 10.005-10.494 20.406-19.705 32.214-28.111 0.5833-0.42797 1.1666-0.85594 1.7676-1.2969 26.345-19.293 57.468-31.069 89.232-37.703 0.82274-0.17789 1.6455-0.35578 2.4932-0.53906 66.343-13.664 139.8 7.7775 190.51 51.539z" fill="#FFFFFF"/>
<path transform="translate(96,160)" d="m0 0c23.07-0.093477 46.14-0.164 69.21-0.20725 10.712-0.020618 21.424-0.048723 32.136-0.094509 9.3376-0.039892 18.675-0.065681 28.013-0.074596 4.9434-0.0052107 9.8865-0.017441 14.83-0.046566 4.6556-0.027207 9.3108-0.035514 13.966-0.02951 1.706-0.0010979 3.412-0.0090204 5.1179-0.024391 17.471-0.14966 17.471-0.14966 24.75 6.2581 0.44602 0.56719 0.89203 1.1344 1.3516 1.7188 0.69223 0.85078 0.69223 0.85078 1.3984 1.7188 3.1518 4.5772 3.5093 8.2759 3.4671 13.779 0.0017088 0.81196 0.0034177 1.6239 0.0051783 2.4605 0.0032973 2.7239-0.0077128 5.4476-0.018637 8.1715-5.6406e-4 1.9513-2.4765e-4 3.9026 8.8501e-4 5.8539 5.7471e-4 5.3013-0.011199 10.602-0.025148 15.904-0.012488 5.5387-0.013676 11.077-0.016051 16.616-0.0062206 10.49-0.022639 20.98-0.042699 31.47-0.022341 11.942-0.033348 23.884-0.043391 35.825-0.020915 24.567-0.056504 49.134-0.10065 73.701h-21l-1-101-19 19c-6.6793 1.6986-11.01 2.3866-17.543 1.9961-1.5903-0.025412-3.1806-0.042804-4.7711-0.052719-4.1272-0.049115-8.2415-0.21511-12.364-0.40559-3.3647-0.13447-6.7281-0.18143-10.095-0.22482-4.049-0.054471-8.0967-0.14956-12.145-0.25436-0.75822-0.018128-1.5164-0.036256-2.2976-0.054934-9.7156-0.27435-17.323-0.64167-24.597-7.7537-4.5587-6.7729-5.6313-12.642-5.5281-20.604-6.5712e-4 -1.3477-6.5712e-4 -1.3477-0.0013275-2.7227 0.0020752-2.9436 0.025346-5.8866 0.048935-8.83 0.0056005-2.0512 0.0098684-4.1025 0.012863-6.1537 0.011413-5.3791 0.04085-10.758 0.074112-16.137 0.030777-5.4968 0.04441-10.994 0.059509-16.49 0.032102-10.771 0.084841-21.542 0.14648-32.312h-20c0.017783 12.423 0.056727 24.845 0.13209 37.268 0.034173 5.7695 0.059365 11.539 0.063466 17.308 0.0043038 5.5764 0.032939 11.152 0.077875 16.729 0.012909 2.1188 0.017306 4.2377 0.012722 6.3566-0.024462 14.75 0.641 27.519 10.636 39.338 10.198 9.8144 21.277 12.436 34.988 12.512 1.208 0.017951 2.4161 0.035902 3.6608 0.054398 3.8305 0.053862 7.6609 0.087922 11.492 0.12138 2.6087 0.033194 5.2175 0.067686 7.8262 0.10352 6.3703 0.084676 12.741 0.15313 19.111 0.20898v2c-0.72316 0.71543-1.4463 1.4309-2.1914 2.168-2.2112 2.2296-3.4626 3.7861-5.0234 6.3828-3.509 5.1624-7.3817 9.501-13.737 10.87-5.6251 0.78454-11.253 0.82405-16.923 0.76721-0.81621-0.0030112-1.6324-0.0060223-2.4734-0.0091248-18.711-0.2052-36.678-5.015-50.714-18.116-7.2515-7.7194-12.727-15.939-15.938-26.062-0.24766-0.71779-0.49531-1.4356-0.75047-2.1751-3.1639-10.506-2.6267-21.141-2.5425-31.997 0.0056047-2.1352 0.0098706-4.2704 0.012863-6.4056 0.01138-5.5829 0.040788-11.166 0.074112-16.748 0.030849-5.7116 0.044425-11.423 0.059509-17.135 0.032044-11.18 0.084755-22.359 0.14648-33.539h-20c0.063073 12.962 0.13861 25.923 0.23571 38.885 0.044604 6.0194 0.083882 12.039 0.11072 18.058 0.026132 5.8162 0.066605 11.632 0.11675 17.448 0.016602 2.2118 0.028157 4.4236 0.034428 6.6354-0.058778 16.235-0.058778 16.235 3.5024 31.974 0.21708 0.68729 0.43416 1.3746 0.65782 2.0827 7.1489 21.67 22.271 37.176 42.256 47.41 11.262 5.3613 22.134 7.4613 34.523 8.0703 1.2404 0.064775 1.2404 0.064775 2.5059 0.13086 2.0187 0.10502 4.0377 0.20623 6.0566 0.30664-1.9481 2.3934-3.9441 4.6992-6 7-0.70044 0.79567-0.70044 0.79567-1.415 1.6074-1.6065 1.8024-3.2478 3.5673-4.8975 5.3301-0.52038 0.59192-1.0408 1.1838-1.5769 1.7937-3.0129 3.1491-5.0847 4.6593-9.5247 4.7727-4.3667-0.31983-8.4726-1.2151-12.648-2.5039-1.0858-0.32895-1.0858-0.32895-2.1936-0.66455-16.544-5.2774-30.184-14.48-42.744-26.335-1.1447-1.0306-1.1447-1.0306-2.3125-2.082-14.586-13.649-24.472-34.422-27.339-54.061-0.12598-0.85919-0.25195-1.7184-0.38175-2.6036-1.3921-10.297-1.498-20.585-1.5409-30.96-0.014769-2.107-0.029648-4.214-0.044632-6.321-0.026711-4.3707-0.040476-8.7412-0.046921-13.112-0.010974-5.5911-0.073121-11.18-0.14672-16.771-0.048351-4.3315-0.060809-8.6626-0.063346-12.994-0.0072088-2.0625-0.027598-4.125-0.061703-6.1872-0.24543-16.032-0.24543-16.032 2.6676-20.651 2.017-1.781 3.9099-2.9891 6.2699-4.2567 1.0851-0.96939 2.1386-1.9757 3.1523-3.0195 1.4108-1.4147 2.8218-2.8293 4.2402-4.2363 2.6355-2.622 2.6355-2.622 4.6074-5.7441z" fill="#0F4880"/>
<path transform="translate(201 76.688)" d="m0 0c2.2442 0.012262 4.4884 0.019742 6.7327 0.022705 4.6946 0.018349 9.3865 0.075745 14.08 0.16479 5.9596 0.1126 11.917 0.1568 17.878 0.17473 5.7493 0.020834 11.498 0.078827 17.247 0.13777 1.069 0.0075229 2.1381 0.015046 3.2395 0.022797 33.481 0.30418 62.431 8.9935 86.312 33.305 17.244 18.363 27.727 41.843 27.631 67.191 0.0012816 1.2598 0.0012816 1.2598 0.0025892 2.5451 0.0016378 2.7944-0.0038386 5.5887-0.0093183 8.383-2.8226e-4 2.011-1.2337e-4 4.022 4.4251e-4 6.033 2.8644e-4 5.4456-0.0055856 10.891-0.012574 16.337-0.006259 5.6961-0.0068394 11.392-0.0080254 17.088-0.0031058 10.78-0.011309 21.561-0.021349 32.341-0.011184 12.276-0.016677 24.551-0.021695 36.827-0.010447 25.246-0.028234 50.493-0.050324 75.739h-21c-0.0058662-2.4723-0.011732-4.9446-0.017776-7.4918-0.056744-23.32-0.12986-46.641-0.21794-69.961-0.044887-11.989-0.084318-23.977-0.11072-35.966-0.023037-10.454-0.056499-20.909-0.10227-31.363-0.023855-5.5309-0.042634-11.062-0.048912-16.593-0.0060859-5.2162-0.026211-10.432-0.056662-15.648-0.0087244-1.9046-0.012515-3.8092-0.010733-5.7137 0.016687-26.089-6.3925-48.478-24.712-67.732-16.191-15.052-36.861-22.625-58.695-22.737-1.8008-0.014849-1.8008-0.014849-3.6381-0.029999-3.2785-0.026106-6.5569-0.048002-9.8354-0.068002-3.4313-0.021936-6.8626-0.049287-10.294-0.076056-6.4915-0.049824-12.983-0.094801-19.475-0.13802-7.393-0.04946-14.786-0.10435-22.179-0.15968-15.202-0.11366-30.405-0.22054-45.607-0.32292v-2c1.7127-1.6824 3.5758-3.1388 5.4414-4.6497 2.6676-2.3136 2.6676-2.3136 4.8389-5.332 8.9242-11.475 19.07-10.659 32.72-10.331z" fill="#0F4880"/>
<path transform="translate(166.26 117.48)" d="m0 0c3.8453 0.077211 7.6907 0.075821 11.537 0.084121 6.4539 0.024749 12.905 0.10067 19.358 0.21324 9.0621 0.15794 18.123 0.21792 27.186 0.26074 6.3228 0.033641 12.645 0.091206 18.968 0.15294 1.5207 0.014705 3.0414 0.028724 4.5621 0.042047 4.3393 0.038749 8.6779 0.092695 13.017 0.16979 1.9212 0.031316 3.8426 0.04929 5.764 0.066652 10.952 0.2269 21.602 1.9516 31.409 7.0288 0.66846 0.34402 1.3369 0.68804 2.0256 1.0425 14.153 7.6554 24.589 20.217 29.412 35.583 0.52562 1.9516 1.0296 3.9093 1.5 5.875 0.17605 0.54925 0.35211 1.0985 0.5335 1.6644 0.69287 3.4689 0.60007 6.9249 0.58675 10.447 0.0012816 1.2363 0.0012816 1.2363 0.0025892 2.4976 0.0016488 2.7653-0.0038568 5.5306-0.0093183 8.2959-2.8203e-4 1.9809-1.2383e-4 3.9617 4.4251e-4 5.9426 2.8737e-4 5.3818-0.0055996 10.764-0.012574 16.145-0.0062436 5.6228-0.0068381 11.246-0.0080254 16.868-0.0031104 10.649-0.01132 21.299-0.021349 31.948-0.01117 12.123-0.016674 24.246-0.021695 36.37-0.010458 24.94-0.028252 49.88-0.050324 74.82h-21c-0.0058662-2.4436-0.011732-4.8872-0.017776-7.4049-0.056693-23.027-0.12979-46.055-0.21794-69.082-0.044927-11.839-0.084349-23.677-0.11072-35.516-0.023005-10.321-0.056432-20.642-0.10227-30.963-0.023898-5.4626-0.042649-10.925-0.048912-16.388-0.0060664-5.1472-0.026122-10.294-0.056662-15.441-0.0087553-1.8837-0.012508-3.7674-0.010733-5.6511 0.010153-15.751-1.4344-28.273-12.247-40.625-8.0711-7.7684-18.795-11.027-29.787-11.088-0.64947-0.004938-1.2989-0.009876-1.9681-0.014964-2.168-0.015311-4.3359-0.023718-6.5039-0.03214-1.5574-0.0095835-3.1147-0.019594-4.6721-0.029999-4.2227-0.027004-8.4454-0.048038-12.668-0.068002-4.4149-0.021888-8.8299-0.049263-13.245-0.076056-8.358-0.049889-16.716-0.094842-25.074-0.13802-9.5163-0.049404-19.033-0.10431-28.549-0.15968-19.574-0.11376-39.147-0.22061-58.721-0.32292 0.37043-0.42009 0.74086-0.84019 1.1225-1.273 2.6536-3.0468 5.1478-6.0766 7.4173-9.4213 10.298-13.861 25.019-12.198 40.722-11.824z" fill="#0F4880"/>
<path transform="translate(182,181)" d="m0 0h87v89h-87v-89z" fill="#0F4880"/>
<text x="516" y="228" fill="#FFFFFF" font-family="'Open Sans', Arial, system-ui, sans-serif" font-size="204" font-weight="400" textLength="865" lengthAdjust="spacingAndGlyphs">APPLIED</text>
<text x="516" y="373" fill="#FFFFFF" font-family="'Open Sans', Arial, system-ui, sans-serif" font-size="156" font-weight="400" textLength="865" lengthAdjust="spacingAndGlyphs">MATERIALS</text>
<text x="1388" y="374" fill="#FFFFFF" font-family="'Open Sans', Arial, system-ui, sans-serif" font-size="36" font-weight="600">TM</text>
</svg>
